<svg width="76" height="71" viewBox="0 0 76 71" fill="none" xmlns="http://www.w3.org/2000/svg">
<ellipse cx="12.5769" cy="42.1923" rx="8.46154" ry="6.76923" fill="#FFE1BD" stroke="#242424" stroke-width="4"/>
<ellipse cx="65.0385" cy="42.1923" rx="8.46154" ry="6.76923" fill="#FFE1BD" stroke="#242424" stroke-width="4"/>
<rect x="16.2692" y="17.1154" width="45.9231" height="51" rx="22.9615" fill="#FFE1BD" stroke="#242424" stroke-width="4"/>
<path d="M60.8077 2H2L8.34615 15.9615C5.80769 16.5256 1.49231 18.8385 4.53846 23.5769C8.34615 29.5 20.1923 33.7308 35.8462 32.0385C51.5 30.3462 49.8077 14.2692 52.3462 21.0385C54.8846 27.8077 57 32.0385 60.8077 32.0385C63.8538 32.0385 67.4359 27.8077 68.8462 25.6923V11.3077C68.8462 4.87692 63.4872 2.42308 60.8077 2Z" fill="#242424" stroke="#242424" stroke-width="4" stroke-linejoin="round"/>
<rect x="27.8077" y="39.6538" width="4.23077" height="6.76923" rx="2.11538" fill="#242424"/>
<rect x="46.4231" y="39.6538" width="4.23077" height="6.76923" rx="2.11538" fill="#242424"/>
</svg>
