<?xml version="1.0" encoding="utf-8"?>
<!-- Generator: Adobe Illustrator 16.0.0, SVG Export Plug-In . SVG Version: 6.00 Build 0)  -->
<!DOCTYPE svg PUBLIC "-//W3C//DTD SVG 1.1//EN" "http://www.w3.org/Graphics/SVG/1.1/DTD/svg11.dtd">
<svg version="1.1" id="Layer_1" xmlns="http://www.w3.org/2000/svg" xmlns:xlink="http://www.w3.org/1999/xlink" x="0px" y="0px"
	 width="28.35px" height="15.064px" viewBox="0 0 28.35 15.064" enable-background="new 0 0 28.35 15.064" xml:space="preserve">
<g enable-background="new    ">
	<path d="M1.001,10.778h0.651l0.377,2.104c0.071,0.426,0.142,0.857,0.213,1.291h0.022c0.088-0.434,0.181-0.865,0.273-1.291
		l0.52-2.104h0.563l0.521,2.104c0.093,0.42,0.18,0.852,0.273,1.291h0.027c0.066-0.439,0.137-0.871,0.203-1.291l0.383-2.104h0.607
		l-0.793,4.033H4.058l-0.541-2.236c-0.071-0.318-0.131-0.619-0.186-0.924H3.309c-0.06,0.305-0.126,0.605-0.191,0.924l-0.531,2.236
		H1.822L1.001,10.778z"/>
	<path d="M6.955,13.284l-1.209-2.506h0.678l0.465,1.074c0.126,0.301,0.241,0.58,0.377,0.885h0.022
		c0.131-0.305,0.263-0.584,0.383-0.885l0.47-1.074h0.662L7.59,13.284v1.527H6.955V13.284z"/>
	<path d="M10.546,10.778h0.634v1.648h1.724v-1.648h0.634v4.033h-0.634v-1.832H11.18v1.832h-0.634V10.778z"/>
	<path d="M14.373,12.782c0-1.297,0.716-2.072,1.751-2.072c1.033,0,1.755,0.775,1.755,2.072s-0.722,2.1-1.755,2.1
		C15.089,14.882,14.373,14.079,14.373,12.782z M17.229,12.782c0-0.945-0.438-1.52-1.104-1.52c-0.668,0-1.101,0.574-1.101,1.52
		c0,0.941,0.433,1.549,1.101,1.549C16.79,14.331,17.229,13.723,17.229,12.782z"/>
	<path d="M19.381,11.315h-1.183v-0.537h3.005v0.537h-1.188v3.496h-0.635V11.315z"/>
	<path d="M21.895,10.778h0.636v3.498h1.706v0.535h-2.342V10.778z"/>
	<path d="M24.946,10.778h2.38v0.537h-1.746v1.121h1.477v0.537h-1.477v1.303h1.806v0.535h-2.439V10.778z"/>
</g>
<g>
	<rect x="9.253" y="2.217" transform="matrix(0.7071 0.7071 -0.7071 0.7071 5.3277 -7.8472)" width="5.767" height="0.582"/>
</g>
<g>
	<polygon points="18.017,8.8 16.529,7.313 16.941,6.902 18.017,7.976 25.73,0.263 26.14,0.675 	"/>
</g>
<g>
	<rect x="6.427" y="2.857" transform="matrix(0.7071 0.7071 -0.7071 0.7071 5.2176 -6.3015)" width="7.577" height="0.581"/>
</g>
<g>
	<rect x="19.764" y="-0.907" transform="matrix(0.7079 0.7063 -0.7063 0.7079 8.5324 -13.0579)" width="0.582" height="9.39"/>
</g>
<g>
	<rect x="3.601" y="3.497" transform="matrix(0.7071 0.7071 -0.7071 0.7071 5.1078 -4.7562)" width="9.388" height="0.582"/>
</g>
<g>
	<rect x="17.844" y="-0.642" transform="matrix(0.7079 0.7063 -0.7063 0.7079 7.5194 -11.8889)" width="0.582" height="7.578"/>
</g>
<g>
	<polygon points="16.529,7.313 14.175,4.957 11.821,7.313 11.409,6.902 14.175,4.135 16.941,6.902 	"/>
</g>
<g>
	<polygon points="10.334,8.8 2.21,0.675 2.621,0.263 10.334,7.976 11.409,6.902 11.821,7.313 	"/>
</g>
<g>
	<rect x="15.922" y="-0.375" transform="matrix(0.7058 0.7084 -0.7084 0.7058 6.5454 -10.747)" width="0.581" height="5.766"/>
</g>
</svg>
