<svg width="179" height="116" viewBox="0 0 179 116" fill="none" xmlns="http://www.w3.org/2000/svg">
<path d="M38.28 76.44L30.76 105H26.16L21.12 87.36C20.96 86.88 20.8 86.3467 20.64 85.76C20.5067 85.1733 20.3733 84.6 20.24 84.04C20.1067 83.4533 19.9867 82.9333 19.88 82.48C19.8 82.0267 19.7333 81.68 19.68 81.44C19.6533 81.68 19.6 82.0267 19.52 82.48C19.44 82.9333 19.3333 83.4533 19.2 84.04C19.0667 84.6 18.9333 85.1867 18.8 85.8C18.6667 86.3867 18.52 86.9467 18.36 87.48L13.4 105H8.8L1.32 76.44H5.76L9.96 93.32C10.0933 93.9067 10.2267 94.5067 10.36 95.12C10.4933 95.7333 10.6133 96.3467 10.72 96.96C10.8533 97.5733 10.96 98.1733 11.04 98.76C11.1467 99.32 11.24 99.84 11.32 100.32C11.4 99.8133 11.48 99.2667 11.56 98.68C11.6667 98.0933 11.7867 97.4933 11.92 96.88C12.0533 96.24 12.1867 95.6133 12.32 95C12.48 94.3867 12.64 93.8267 12.8 93.32L17.56 76.44H21.88L26.8 93.4C26.96 93.9333 27.1067 94.5067 27.24 95.12C27.4 95.7333 27.5467 96.36 27.68 97C27.8133 97.6133 27.92 98.2133 28 98.8C28.1067 99.36 28.2 99.8667 28.28 100.32C28.36 99.6533 28.4667 98.9333 28.6 98.16C28.76 97.36 28.9333 96.5467 29.12 95.72C29.3067 94.8667 29.4933 94.0667 29.68 93.32L33.88 76.44H38.28ZM50.3363 89.8L57.3363 76.44H61.9763L52.4563 93.92V105H48.1763V94.08L38.6562 76.44H43.3363L50.3363 89.8ZM88.6072 105L79.9672 80.72H79.8072C79.8339 81.2533 79.8739 81.9733 79.9272 82.88C79.9805 83.7867 80.0205 84.76 80.0472 85.8C80.0739 86.84 80.0872 87.8667 80.0872 88.88V105H76.1672V76.44H82.3272L90.5272 99.36H90.6872L99.1272 76.44H105.287V105H101.087V88.64C101.087 87.7067 101.101 86.7467 101.127 85.76C101.181 84.7467 101.221 83.8 101.247 82.92C101.301 82.04 101.341 81.32 101.367 80.76H101.207L92.3272 105H88.6072ZM130.686 105L127.646 96.76H116.606L113.566 105H109.086L119.926 76.32H124.406L135.206 105H130.686ZM123.566 84.96C123.486 84.6667 123.339 84.2267 123.126 83.64C122.939 83.0267 122.753 82.4133 122.566 81.8C122.379 81.16 122.233 80.64 122.126 80.24C121.993 80.7733 121.833 81.36 121.646 82C121.486 82.6133 121.326 83.1867 121.166 83.72C121.006 84.2267 120.873 84.64 120.766 84.96L117.886 93H126.446L123.566 84.96ZM139.058 105V76.44H143.378V101.28H155.578V105H139.058ZM160.503 105V76.44H164.823V101.28H177.023V105H160.503Z" fill="black"/>
<path d="M86.4512 29.8348L57.6833 0.869781L54.7801 3.79291L83.5479 32.758L86.4512 29.8348Z" fill="black"/>
<path d="M112.104 61.5066L101.607 50.9444L104.513 48.0251L112.104 55.6537L166.517 0.868103L169.409 3.79455L112.104 61.5066Z" fill="black"/>
<path d="M77.4137 38.9255L39.6169 0.869629L36.7187 3.78773L74.5155 41.8436L77.4137 38.9255Z" fill="black"/>
<path d="M151.321 3.76198L148.414 0.842163L101.626 48.0573L104.533 50.9771L151.321 3.76198Z" fill="black"/>
<path d="M68.3833 48.0183L21.5526 0.866638L18.6494 3.78976L65.4801 50.9415L68.3833 48.0183Z" fill="black"/>
<path d="M133.265 3.76552L130.359 0.845703L92.5998 38.9496L95.5063 41.8695L133.265 3.76552Z" fill="black"/>
<path d="M101.607 50.9445L85 34.2097L68.3933 50.9445L65.4868 48.0251L85 28.371L104.513 48.0251L101.607 50.9445Z" fill="black"/>
<path d="M57.903 61.5066L0.59082 3.79455L3.49029 0.868103L57.903 55.6537L65.4868 48.0251L68.3933 50.9444L57.903 61.5066Z" fill="black"/>
<path d="M115.221 3.82331L112.328 0.899841L83.5125 29.8066L86.4055 32.7301L115.221 3.82331Z" fill="black"/>
</svg>
