<svg width="84" height="45" viewBox="0 0 84 45" fill="none" xmlns="http://www.w3.org/2000/svg">
<path d="M2.96593 32.1966H4.89482L6.01185 38.4818C6.22222 39.7544 6.43259 41.0419 6.64296 42.3384H6.70815C6.96889 41.0419 7.24445 39.7544 7.51704 38.4818L9.05778 32.1966H10.7259L12.2696 38.4818C12.5452 39.7365 12.803 41.027 13.0785 42.3384H13.1585C13.3541 41.027 13.5644 39.7365 13.76 38.4818L14.8948 32.1966H16.6933L14.3437 44.2442H12.0237L10.4207 37.5647C10.2104 36.6148 10.0326 35.7156 9.86963 34.8045H9.80445C9.62667 35.7156 9.43111 36.6118 9.23852 37.5647L7.66519 44.2442H5.39852L2.96593 32.1966Z" fill="black"/>
<path d="M20.6074 39.6827L17.0252 32.1966H19.0341L20.4119 35.405C20.7852 36.3041 21.1259 37.1376 21.5289 38.0487H21.5941C21.9822 37.1376 22.3733 36.3041 22.7289 35.405L24.1215 32.1966H26.083L22.4889 39.6827V44.2442H20.6074V39.6827Z" fill="black"/>
<path d="M31.2474 32.1966H33.1259V37.1196H38.2341V32.1966H40.1126V44.2442H38.2341V38.7716H33.1259V44.2442H31.2474V32.1966Z" fill="black"/>
<path d="M42.5867 38.1831C42.5867 34.3086 44.7082 31.9935 47.7748 31.9935C50.8356 31.9935 52.9748 34.3086 52.9748 38.1831C52.9748 42.0576 50.8356 44.4563 47.7748 44.4563C44.7082 44.4563 42.5867 42.0576 42.5867 38.1831ZM51.0489 38.1831C51.0489 35.3601 49.7511 33.6425 47.7778 33.6425C45.7985 33.6425 44.5156 35.3571 44.5156 38.1831C44.5156 40.9941 45.7985 42.8103 47.7778 42.8103C49.7482 42.8103 51.0489 40.9941 51.0489 38.1831Z" fill="black"/>
<path d="M57.4252 33.8008H53.92V32.1966H62.8237V33.8008H59.3037V44.2442H57.4222V33.8008H57.4252Z" fill="black"/>
<path d="M76 32.1966H77.8844V42.6461H82.9393V44.2442H76V32.1966Z" fill="black"/>
<path d="M66 32.1966H73.0519V33.8008H67.8785V37.1495H72.2548V38.7537H67.8785V42.6461H73.2296V44.2442H66.003V32.1966H66Z" fill="black"/>
<path d="M42.6095 12.9679L30.527 0.786362L29.3076 2.01571L41.3901 14.1973L42.6095 12.9679Z" fill="black"/>
<path d="M53.3837 26.2878L48.9748 21.8458L50.1956 20.618L53.3837 23.8263L76.237 0.785645L77.4518 2.01639L53.3837 26.2878Z" fill="black"/>
<path d="M38.8138 16.7911L22.9391 0.786301L21.7219 2.01354L37.5965 18.0183L38.8138 16.7911Z" fill="black"/>
<path d="M69.8547 2.0027L68.6339 0.774734L48.9831 20.6316L50.2038 21.8595L69.8547 2.0027Z" fill="black"/>
<path d="M35.021 20.6152L15.3521 0.785034L14.1328 2.01439L33.8017 21.8445L35.021 20.6152Z" fill="black"/>
<path d="M62.2714 2.00419L61.0507 0.77623L45.1919 16.8013L46.4126 18.0292L62.2714 2.00419Z" fill="black"/>
<path d="M48.9748 21.8458L42 14.8078L35.0252 21.8458L33.8044 20.618L42 12.3523L50.1956 20.618L48.9748 21.8458Z" fill="black"/>
<path d="M30.6193 26.2878L6.54815 2.01639L7.76593 0.785645L30.6193 23.8263L33.8044 20.618L35.0252 21.8458L30.6193 26.2878Z" fill="black"/>
<path d="M54.6929 2.02849L53.4779 0.798996L41.3753 12.9561L42.5903 14.1855L54.6929 2.02849Z" fill="black"/>
</svg>
