<svg width="125" height="125" viewBox="0 0 125 125" fill="none" xmlns="http://www.w3.org/2000/svg">
<path d="M53.3076 9.19238C58.3844 4.11557 66.6156 4.11557 71.6924 9.19239L115.808 53.3076C120.884 58.3844 120.884 66.6156 115.808 71.6924L71.6924 115.808C66.6156 120.884 58.3844 120.884 53.3076 115.808L9.19238 71.6924C4.11557 66.6156 4.11557 58.3844 9.19239 53.3076L53.3076 9.19238Z" fill="#5FE986"/>
<path d="M59.7734 56.5312C59.7865 57.0781 59.9427 57.5729 60.2422 58.0156C60.5547 58.4453 60.9583 58.8555 61.4531 59.2461C61.9609 59.6367 62.5339 60.0208 63.1719 60.3984C63.8099 60.763 64.4609 61.1536 65.125 61.5703C65.8021 61.974 66.4596 62.4167 67.0977 62.8984C67.7357 63.3802 68.3086 63.9271 68.8164 64.5391C69.3242 65.151 69.7344 65.8411 70.0469 66.6094C70.3594 67.3776 70.5286 68.25 70.5547 69.2266V69.3828C70.5547 70.4505 70.4245 71.3815 70.1641 72.1758C69.9036 72.9701 69.5586 73.6536 69.1289 74.2266C68.6992 74.7995 68.1979 75.2747 67.625 75.6523C67.0521 76.0169 66.4466 76.3099 65.8086 76.5312C65.1836 76.7526 64.5456 76.9089 63.8945 77C63.2565 77.0911 62.651 77.1432 62.0781 77.1562H61.8828C60.776 77.1562 59.806 77.0456 58.9727 76.8242C58.1393 76.6029 57.4232 76.3099 56.8242 75.9453C56.2253 75.5677 55.724 75.138 55.3203 74.6562C54.9297 74.1745 54.6172 73.6797 54.3828 73.1719C54.1484 72.651 53.9792 72.1367 53.875 71.6289C53.7708 71.1211 53.7188 70.6458 53.7188 70.2031C53.7188 69.7474 53.7969 69.3503 53.9531 69.0117C54.1094 68.6732 54.3112 68.3997 54.5586 68.1914C54.819 67.9701 55.112 67.8073 55.4375 67.7031C55.776 67.599 56.1276 67.5469 56.4922 67.5469C56.8307 67.5469 57.1758 67.599 57.5273 67.7031C57.8919 67.8073 58.2174 67.9701 58.5039 68.1914C58.8034 68.3997 59.0443 68.6732 59.2266 69.0117C59.4219 69.3372 59.526 69.7214 59.5391 70.1641C59.5651 71.1406 59.7865 71.8112 60.2031 72.1758C60.6198 72.5273 61.2188 72.7031 62 72.7031C62.3906 72.6901 62.7487 72.6445 63.0742 72.5664C63.4128 72.4753 63.6992 72.3255 63.9336 72.1172C64.168 71.8958 64.3503 71.6094 64.4805 71.2578C64.6237 70.8932 64.6953 70.4375 64.6953 69.8906C64.6953 69.2135 64.5391 68.6016 64.2266 68.0547C63.9271 67.5078 63.5299 67 63.0352 66.5312C62.5404 66.0625 61.974 65.6198 61.3359 65.2031C60.6979 64.7734 60.0469 64.3503 59.3828 63.9336C58.7188 63.5039 58.0677 63.0612 57.4297 62.6055C56.8047 62.1367 56.2383 61.6289 55.7305 61.082C55.2227 60.5352 54.8125 59.9297 54.5 59.2656C54.2005 58.6016 54.0443 57.8464 54.0312 57V56.6875C54.0443 55.2943 54.2266 54.1354 54.5781 53.2109C54.9427 52.2865 55.4701 51.5508 56.1602 51.0039C56.8633 50.457 57.7227 50.0729 58.7383 49.8516C59.7539 49.6172 60.9193 49.5 62.2344 49.5H62.7422C63.9401 49.5 64.9557 49.6302 65.7891 49.8906C66.6224 50.151 67.3125 50.4831 67.8594 50.8867C68.4193 51.2904 68.8555 51.7461 69.168 52.2539C69.4935 52.7617 69.7344 53.263 69.8906 53.7578C70.0469 54.2526 70.1445 54.7148 70.1836 55.1445C70.2227 55.5742 70.2422 55.9193 70.2422 56.1797C70.2422 56.5703 70.1641 56.9284 70.0078 57.2539C69.8646 57.5664 69.6628 57.8333 69.4023 58.0547C69.1549 58.276 68.8555 58.4518 68.5039 58.582C68.1654 58.6992 67.7943 58.7578 67.3906 58.7578C67.0781 58.7578 66.7656 58.6992 66.4531 58.582C66.1406 58.4518 65.8607 58.2891 65.6133 58.0938C65.3659 57.8984 65.1641 57.6771 65.0078 57.4297C64.8516 57.1693 64.7734 56.9089 64.7734 56.6484C64.7734 55.5807 64.5781 54.8385 64.1875 54.4219C63.8099 54.0052 63.25 53.7969 62.5078 53.7969C62.1562 53.7969 61.8112 53.8164 61.4727 53.8555C61.1471 53.8945 60.8542 54.0052 60.5938 54.1875C60.3464 54.3568 60.1445 54.6237 59.9883 54.9883C59.8451 55.3529 59.7734 55.8672 59.7734 56.5312Z" fill="white"/>
</svg>
