<svg width="125" height="125" viewBox="0 0 125 125" fill="none" xmlns="http://www.w3.org/2000/svg">
<path d="M56 3.75278C60.0222 1.43055 64.9778 1.43055 69 3.75278L110.127 27.4972C114.149 29.8194 116.627 34.1111 116.627 38.7556V86.2444C116.627 90.8889 114.149 95.1806 110.127 97.5028L69 121.247C64.9778 123.569 60.0222 123.569 56 121.247L14.8734 97.5028C10.8512 95.1806 8.37341 90.8889 8.37341 86.2444V38.7556C8.37341 34.1111 10.8512 29.8194 14.8734 27.4972L56 3.75278Z" fill="#FF6767"/>
<path d="M62.25 49.6562C63.4349 49.6562 64.5352 49.806 65.5508 50.1055C66.5794 50.4049 67.4714 50.8542 68.2266 51.4531C68.9948 52.0391 69.5938 52.7747 70.0234 53.6602C70.4661 54.5456 70.6875 55.5807 70.6875 56.7656V68.875C70.6875 69.8906 70.5768 70.7891 70.3555 71.5703C70.1341 72.3385 69.8411 73.0091 69.4766 73.582C69.125 74.1419 68.7214 74.6237 68.2656 75.0273C67.8099 75.418 67.3477 75.737 66.8789 75.9844C65.7591 76.5833 64.4896 76.9219 63.0703 77H56.5859C55.8438 77 55.2708 76.8763 54.8672 76.6289C54.4635 76.3685 54.1706 76.0299 53.9883 75.6133C53.806 75.1836 53.6953 74.7018 53.6562 74.168C53.6302 73.6341 53.6172 73.0807 53.6172 72.5078V54.1094C53.6172 53.5495 53.6302 53.0026 53.6562 52.4688C53.6953 51.9349 53.806 51.4596 53.9883 51.043C54.1706 50.6263 54.4635 50.2943 54.8672 50.0469C55.2708 49.7865 55.8438 49.6562 56.5859 49.6562H62.25ZM59.5547 54.2266V72.3516H62.0938C62.6536 72.3255 63.1549 72.1953 63.5977 71.9609C63.7799 71.8698 63.9622 71.7461 64.1445 71.5898C64.3268 71.4336 64.4896 71.2513 64.6328 71.043C64.776 70.8216 64.8867 70.5612 64.9648 70.2617C65.056 69.9622 65.1016 69.6172 65.1016 69.2266V57.7031C65.1016 57.2734 65.056 56.8958 64.9648 56.5703C64.8867 56.2318 64.776 55.9388 64.6328 55.6914C64.4896 55.444 64.3268 55.2357 64.1445 55.0664C63.9622 54.8971 63.7799 54.7604 63.5977 54.6562C63.1549 54.4089 62.6536 54.2656 62.0938 54.2266H59.5547Z" fill="white"/>
<path d="M82.0486 34.9388C82.3473 34.0161 83.6527 34.0161 83.9514 34.9388L85.3727 39.3293C85.5063 39.7418 85.8905 40.0213 86.3241 40.0213H90.9314C91.8993 40.0213 92.3026 41.259 91.5206 41.8293L87.7869 44.5519C87.4377 44.8065 87.2916 45.2567 87.4247 45.6679L88.8494 50.0686C89.1479 50.9906 88.0918 51.7556 87.3088 51.1846L83.5892 48.4722C83.2381 48.2162 82.7619 48.2162 82.4108 48.4722L78.6912 51.1846C77.9082 51.7556 76.8521 50.9906 77.1506 50.0686L78.5753 45.6679C78.7084 45.2567 78.5623 44.8065 78.2131 44.5519L74.4794 41.8293C73.6974 41.259 74.1007 40.0213 75.0686 40.0213H79.6759C80.1095 40.0213 80.4937 39.7418 80.6273 39.3293L82.0486 34.9388Z" fill="white"/>
</svg>
