<svg width="149" height="149" viewBox="0 0 149 149" fill="none" xmlns="http://www.w3.org/2000/svg">
<path d="M85.7583 129.5C80.7546 138.167 68.2454 138.167 63.2417 129.5L21.2394 56.75C16.2357 48.0833 22.4904 37.25 32.4978 37.25L116.502 37.25C126.51 37.25 132.764 48.0833 127.761 56.75L85.7583 129.5Z" fill="#B5B5B5"/>
<path d="M73.9766 64.6562C75.1354 64.6562 76.2227 64.806 77.2383 65.1055C78.2669 65.4049 79.1589 65.8542 79.9141 66.4531C80.6823 67.0521 81.2812 67.8008 81.7109 68.6992C82.1536 69.5846 82.375 70.6198 82.375 71.8047C82.375 72.4167 82.2904 72.9766 82.1211 73.4844C81.9648 73.9792 81.7565 74.4284 81.4961 74.832C81.2487 75.2357 80.9688 75.5872 80.6562 75.8867C80.3568 76.1862 80.0638 76.4466 79.7773 76.668C79.4909 76.8763 79.237 77.0456 79.0156 77.1758C78.7943 77.293 78.638 77.3646 78.5469 77.3906C79.3281 77.612 79.9857 77.8984 80.5195 78.25C81.0534 78.5885 81.4961 78.9661 81.8477 79.3828C82.2122 79.7865 82.4922 80.2096 82.6875 80.6523C82.8958 81.082 83.0456 81.5052 83.1367 81.9219C83.2409 82.3255 83.2995 82.7031 83.3125 83.0547C83.3385 83.3932 83.3516 83.6667 83.3516 83.875C83.3516 84.8906 83.2279 85.7891 82.9805 86.5703C82.7331 87.3385 82.4076 88.0091 82.0039 88.582C81.6003 89.1419 81.138 89.6237 80.6172 90.0273C80.0964 90.418 79.569 90.737 79.0352 90.9844C77.7591 91.5833 76.3203 91.9219 74.7188 92H68.3125C67.5703 92 66.9974 91.8763 66.5938 91.6289C66.1901 91.3685 65.8971 91.0299 65.7148 90.6133C65.5326 90.1836 65.4219 89.7018 65.3828 89.168C65.3568 88.6341 65.3438 88.0807 65.3438 87.5078V69.1094C65.3438 68.5495 65.3568 68.0026 65.3828 67.4687C65.4219 66.9349 65.5326 66.4596 65.7148 66.043C65.8971 65.6263 66.1901 65.2943 66.5938 65.0469C66.9974 64.7865 67.5703 64.6562 68.3125 64.6562H73.9766ZM71.2812 80.0469V87.3906H74.1328C74.7448 87.3646 75.2917 87.2214 75.7734 86.9609C75.9818 86.8568 76.1836 86.72 76.3789 86.5508C76.5742 86.3815 76.75 86.1732 76.9062 85.9258C77.0625 85.6654 77.1862 85.3724 77.2773 85.0469C77.3685 84.7083 77.4141 84.3177 77.4141 83.875C77.4141 83.3932 77.362 82.9766 77.2578 82.625C77.1667 82.2604 77.0365 81.9479 76.8672 81.6875C76.7109 81.4141 76.5286 81.1862 76.3203 81.0039C76.112 80.8086 75.9036 80.6523 75.6953 80.5352C75.1875 80.2617 74.6146 80.099 73.9766 80.0469H71.2812ZM71.2812 69.2656V75.9062H73.7812C74.3411 75.8802 74.8424 75.75 75.2852 75.5156C75.4674 75.4245 75.6497 75.3008 75.832 75.1445C76.0143 74.9883 76.1771 74.806 76.3203 74.5977C76.4635 74.3763 76.5742 74.1159 76.6523 73.8164C76.7435 73.5169 76.7891 73.1719 76.7891 72.7812C76.7891 72.3385 76.7435 71.9544 76.6523 71.6289C76.5612 71.2904 76.4375 71.0039 76.2812 70.7695C76.138 70.5221 75.9688 70.3138 75.7734 70.1445C75.5911 69.9753 75.4023 69.832 75.207 69.7148C74.7383 69.4674 74.2109 69.3177 73.625 69.2656H71.2812Z" fill="white"/>
</svg>
