<svg width="125" height="125" viewBox="0 0 125 125" fill="none" xmlns="http://www.w3.org/2000/svg">
<path d="M54.8588 5.55166C59.4151 2.24129 65.5849 2.24129 70.1412 5.55166L114.3 37.6348C118.856 40.9451 120.763 46.8129 119.022 52.1692L102.155 104.081C100.415 109.437 95.4235 113.064 89.7915 113.064H35.2085C29.5765 113.064 24.5851 109.437 22.8447 104.081L5.97765 52.1692C4.23728 46.8129 6.14384 40.9451 10.7002 37.6348L54.8588 5.55166Z" fill="#FFCB67"/>
<path d="M71.9375 75.2031C71.9375 75.3724 71.918 75.5677 71.8789 75.7891C71.8529 76.0104 71.7682 76.2253 71.625 76.4336C71.4948 76.6289 71.2995 76.7982 71.0391 76.9414C70.7786 77.0846 70.4271 77.1562 69.9844 77.1562C69.4896 77.1562 69.099 77.0911 68.8125 76.9609C68.526 76.8177 68.3047 76.6484 68.1484 76.4531C68.0052 76.2448 67.9076 76.0299 67.8555 75.8086C67.8164 75.5872 67.7969 75.3854 67.7969 75.2031V74.0312C67.1719 74.9557 66.3711 75.7109 65.3945 76.2969C64.431 76.8698 63.2396 77.1562 61.8203 77.1562C61.5729 77.1562 61.1888 77.1367 60.668 77.0977C60.1471 77.0586 59.5612 76.9544 58.9102 76.7852C58.2591 76.6159 57.5885 76.362 56.8984 76.0234C56.2083 75.6849 55.5768 75.2161 55.0039 74.6172C54.444 74.0052 53.9818 73.25 53.6172 72.3516C53.2526 71.4401 53.0703 70.3333 53.0703 69.0312V58.0938C53.0703 57.026 53.2005 56.082 53.4609 55.2617C53.7214 54.4414 54.0599 53.7318 54.4766 53.1328C54.9062 52.5208 55.3945 52.013 55.9414 51.6094C56.4883 51.1927 57.0482 50.8477 57.6211 50.5742C58.9492 49.9492 60.4661 49.5911 62.1719 49.5C63.6172 49.5 64.8542 49.6628 65.8828 49.9883C66.9115 50.3138 67.7839 50.737 68.5 51.2578C69.2161 51.7786 69.7891 52.3711 70.2188 53.0352C70.6484 53.6862 70.9805 54.3503 71.2148 55.0273C71.4492 55.7044 71.599 56.3555 71.6641 56.9805C71.7422 57.6055 71.7812 58.1458 71.7812 58.6016C71.7812 58.7969 71.7617 59.0378 71.7227 59.3242C71.6966 59.5977 71.5859 59.8646 71.3906 60.125C71.1953 60.3724 70.8828 60.5872 70.4531 60.7695C70.0365 60.9388 69.4375 61.0234 68.6562 61.0234C68.3828 61.0234 68.0443 61.0104 67.6406 60.9844C67.25 60.9453 66.8724 60.8607 66.5078 60.7305C66.1432 60.6003 65.8307 60.4115 65.5703 60.1641C65.3099 59.9036 65.1797 59.5521 65.1797 59.1094C65.1797 58.4062 65.1341 57.7812 65.043 57.2344C64.9648 56.6745 64.8151 56.1992 64.5938 55.8086C64.3724 55.418 64.0664 55.125 63.6758 54.9297C63.2852 54.7214 62.7839 54.6172 62.1719 54.6172C61.5339 54.6172 61.0391 54.7474 60.6875 55.0078C60.349 55.2682 60.1016 55.5547 59.9453 55.8672C59.763 56.2318 59.6589 56.6484 59.6328 57.1172V69.6172C59.6328 70.0339 59.7044 70.4245 59.8477 70.7891C60.0039 71.1536 60.2188 71.4727 60.4922 71.7461C60.7656 72.0195 61.0846 72.2344 61.4492 72.3906C61.8268 72.5469 62.237 72.625 62.6797 72.625C63.2005 72.625 63.6693 72.5143 64.0859 72.293C64.5156 72.0586 64.8997 71.7526 65.2383 71.375C65.5768 70.9844 65.8763 70.5482 66.1367 70.0664C66.4102 69.5716 66.651 69.0573 66.8594 68.5234H64.9844C64.6068 68.4844 64.2747 68.3867 63.9883 68.2305C63.7279 68.1003 63.4935 67.9049 63.2852 67.6445C63.0898 67.3841 62.9922 67.026 62.9922 66.5703C62.9922 66.0755 63.0898 65.6979 63.2852 65.4375C63.4935 65.1641 63.7279 64.9622 63.9883 64.832C64.2747 64.6888 64.6068 64.6042 64.9844 64.5781H70.0625C70.1536 64.5781 70.2969 64.5977 70.4922 64.6367C70.7005 64.6628 70.9089 64.7539 71.1172 64.9102C71.3385 65.0664 71.5273 65.3008 71.6836 65.6133C71.8529 65.9128 71.9375 66.3359 71.9375 66.8828V75.2031Z" fill="white"/>
</svg>
