<svg width="190" height="116" viewBox="0 0 190 116" fill="none" xmlns="http://www.w3.org/2000/svg">
<path d="M38.28 76.44L30.76 105H26.16L21.12 87.36C20.96 86.88 20.8 86.3467 20.64 85.76C20.5067 85.1733 20.3733 84.6 20.24 84.04C20.1067 83.4533 19.9867 82.9333 19.88 82.48C19.8 82.0267 19.7333 81.68 19.68 81.44C19.6533 81.68 19.6 82.0267 19.52 82.48C19.44 82.9333 19.3333 83.4533 19.2 84.04C19.0667 84.6 18.9333 85.1867 18.8 85.8C18.6667 86.3867 18.52 86.9467 18.36 87.48L13.4 105H8.8L1.32 76.44H5.76L9.96 93.32C10.0933 93.9067 10.2267 94.5067 10.36 95.12C10.4933 95.7333 10.6133 96.3467 10.72 96.96C10.8533 97.5733 10.96 98.1733 11.04 98.76C11.1467 99.32 11.24 99.84 11.32 100.32C11.4 99.8133 11.48 99.2667 11.56 98.68C11.6667 98.0933 11.7867 97.4933 11.92 96.88C12.0533 96.24 12.1867 95.6133 12.32 95C12.48 94.3867 12.64 93.8267 12.8 93.32L17.56 76.44H21.88L26.8 93.4C26.96 93.9333 27.1067 94.5067 27.24 95.12C27.4 95.7333 27.5467 96.36 27.68 97C27.8133 97.6133 27.92 98.2133 28 98.8C28.1067 99.36 28.2 99.8667 28.28 100.32C28.36 99.6533 28.4667 98.9333 28.6 98.16C28.76 97.36 28.9333 96.5467 29.12 95.72C29.3067 94.8667 29.4933 94.0667 29.68 93.32L33.88 76.44H38.28ZM50.3363 89.8L57.3363 76.44H61.9763L52.4563 93.92V105H48.1763V94.08L38.6562 76.44H43.3363L50.3363 89.8ZM88.0872 89.64H98.4072V103.88C96.8872 104.387 95.3272 104.76 93.7272 105C92.1539 105.267 90.3539 105.4 88.3272 105.4C85.4205 105.4 82.9539 104.813 80.9272 103.64C78.9272 102.467 77.3939 100.787 76.3272 98.6C75.2872 96.4133 74.7672 93.7867 74.7672 90.72C74.7672 87.7333 75.3539 85.1467 76.5272 82.96C77.7005 80.7733 79.3805 79.08 81.5672 77.88C83.7805 76.6533 86.4605 76.04 89.6072 76.04C91.1805 76.04 92.6872 76.2 94.1272 76.52C95.5672 76.8133 96.9005 77.2267 98.1272 77.76L96.5672 81.36C95.5805 80.9067 94.4739 80.5333 93.2472 80.24C92.0472 79.92 90.7805 79.76 89.4472 79.76C87.3405 79.76 85.5139 80.2133 83.9672 81.12C82.4472 82 81.2739 83.2667 80.4472 84.92C79.6472 86.5467 79.2472 88.4933 79.2472 90.76C79.2472 92.8933 79.5805 94.7867 80.2472 96.44C80.9139 98.0933 81.9672 99.3867 83.4072 100.32C84.8472 101.253 86.7272 101.72 89.0472 101.72C89.8205 101.72 90.5005 101.693 91.0872 101.64C91.6739 101.56 92.2072 101.48 92.6872 101.4C93.1939 101.293 93.6739 101.2 94.1272 101.12V93.36H88.0872V89.64ZM113.23 76.44C115.683 76.44 117.696 76.7467 119.27 77.36C120.843 77.9733 122.016 78.8933 122.79 80.12C123.563 81.32 123.95 82.84 123.95 84.68C123.95 86.1467 123.67 87.3867 123.11 88.4C122.576 89.3867 121.883 90.2 121.03 90.84C120.176 91.4533 119.283 91.9467 118.35 92.32L126.35 105H121.39L114.51 93.44H109.55V105H105.23V76.44H113.23ZM112.95 80.12H109.55V89.84H113.15C114.616 89.84 115.816 89.6533 116.75 89.28C117.71 88.9067 118.403 88.3467 118.83 87.6C119.283 86.8533 119.51 85.9333 119.51 84.84C119.51 83.6933 119.27 82.7867 118.79 82.12C118.336 81.4267 117.616 80.92 116.63 80.6C115.67 80.28 114.443 80.12 112.95 80.12ZM148.342 105L145.302 96.76H134.262L131.222 105H126.742L137.582 76.32H142.062L152.862 105H148.342ZM141.222 84.96C141.142 84.6667 140.996 84.2267 140.782 83.64C140.596 83.0267 140.409 82.4133 140.222 81.8C140.036 81.16 139.889 80.64 139.782 80.24C139.649 80.7733 139.489 81.36 139.302 82C139.142 82.6133 138.982 83.1867 138.822 83.72C138.662 84.2267 138.529 84.64 138.422 84.96L135.542 93H144.102L141.222 84.96ZM169.154 105L160.514 80.72H160.354C160.381 81.2533 160.421 81.9733 160.474 82.88C160.527 83.7867 160.567 84.76 160.594 85.8C160.621 86.84 160.634 87.8667 160.634 88.88V105H156.714V76.44H162.874L171.074 99.36H171.234L179.674 76.44H185.834V105H181.634V88.64C181.634 87.7067 181.647 86.7467 181.674 85.76C181.727 84.7467 181.767 83.8 181.794 82.92C181.847 82.04 181.887 81.32 181.914 80.76H181.754L172.874 105H169.154Z" fill="black"/>
<path d="M86.4512 29.8348L57.6833 0.869781L54.7801 3.79291L83.5479 32.758L86.4512 29.8348Z" fill="black"/>
<path d="M112.104 61.5066L101.607 50.9444L104.513 48.0251L112.104 55.6537L166.517 0.868103L169.409 3.79455L112.104 61.5066Z" fill="black"/>
<path d="M77.4137 38.9255L39.6169 0.869629L36.7187 3.78773L74.5155 41.8436L77.4137 38.9255Z" fill="black"/>
<path d="M151.321 3.76198L148.414 0.842163L101.626 48.0573L104.533 50.9771L151.321 3.76198Z" fill="black"/>
<path d="M68.3833 48.0183L21.5526 0.866638L18.6494 3.78976L65.4801 50.9415L68.3833 48.0183Z" fill="black"/>
<path d="M133.265 3.76552L130.359 0.845703L92.5998 38.9496L95.5063 41.8695L133.265 3.76552Z" fill="black"/>
<path d="M101.607 50.9445L85 34.2097L68.3933 50.9445L65.4868 48.0251L85 28.371L104.513 48.0251L101.607 50.9445Z" fill="black"/>
<path d="M57.903 61.5066L0.59082 3.79455L3.49029 0.868103L57.903 55.6537L65.4868 48.0251L68.3933 50.9444L57.903 61.5066Z" fill="black"/>
<path d="M115.221 3.82331L112.328 0.899841L83.5125 29.8066L86.4055 32.7301L115.221 3.82331Z" fill="black"/>
</svg>
