<?xml version="1.0" encoding="utf-8"?>
<!-- Generator: Adobe Illustrator 16.0.0, SVG Export Plug-In . SVG Version: 6.00 Build 0)  -->
<!DOCTYPE svg PUBLIC "-//W3C//DTD SVG 1.1//EN" "http://www.w3.org/Graphics/SVG/1.1/DTD/svg11.dtd">
<svg version="1.1" id="Layer_1" xmlns="http://www.w3.org/2000/svg" xmlns:xlink="http://www.w3.org/1999/xlink" x="0px" y="0px"
	 width="595.28px" height="841.89px" viewBox="0 0 595.28 841.89" enable-background="new 0 0 595.28 841.89" xml:space="preserve">
<line fill="none" stroke="#000000" stroke-miterlimit="10" x1="86.142" y1="93.091" x2="79.134" y2="86.083"/>
<polyline fill="none" stroke="#000000" stroke-miterlimit="10" points="90.542,97.493 92.744,99.693 106.354,86.083 "/>
<line fill="none" stroke="#000000" stroke-miterlimit="10" x1="83.941" y1="95.292" x2="74.732" y2="86.083"/>
<line fill="none" stroke="#000000" stroke-miterlimit="10" x1="101.952" y1="86.083" x2="90.542" y2="97.493"/>
<line fill="none" stroke="#000000" stroke-miterlimit="10" x1="81.741" y1="97.493" x2="70.331" y2="86.083"/>
<line fill="none" stroke="#000000" stroke-miterlimit="10" x1="97.551" y1="86.083" x2="88.342" y2="95.292"/>
<polyline fill="none" stroke="#000000" stroke-miterlimit="10" points="81.741,97.493 83.941,95.292 86.142,93.091 88.342,95.292 
	90.542,97.493 "/>
<polyline fill="none" stroke="#000000" stroke-miterlimit="10" points="65.93,86.083 79.54,99.693 81.741,97.493 "/>
<line fill="none" stroke="#000000" stroke-miterlimit="10" x1="93.149" y1="86.083" x2="86.142" y2="93.091"/>
<text transform="matrix(1 0 0 1 61.0015 111.7056)" font-family="'NotoSansKR-Medium-KSCpc-EUC-H'" font-size="8.9811">WY HOTTLE</text>
<line fill="none" stroke="#000000" stroke-miterlimit="10" x1="86.142" y1="189.824" x2="79.134" y2="182.815"/>
<polyline fill="none" stroke="#000000" stroke-miterlimit="10" points="90.542,194.225 92.744,196.425 106.354,182.815 "/>
<line fill="none" stroke="#000000" stroke-miterlimit="10" x1="83.941" y1="192.024" x2="74.732" y2="182.815"/>
<line fill="none" stroke="#000000" stroke-miterlimit="10" x1="101.952" y1="182.815" x2="90.542" y2="194.225"/>
<line fill="none" stroke="#000000" stroke-miterlimit="10" x1="81.741" y1="194.225" x2="70.331" y2="182.815"/>
<line fill="none" stroke="#000000" stroke-miterlimit="10" x1="97.551" y1="182.815" x2="88.342" y2="192.024"/>
<polyline fill="none" stroke="#000000" stroke-miterlimit="10" points="81.741,194.225 83.941,192.024 86.142,189.824 
	88.342,192.024 90.542,194.225 "/>
<polyline fill="none" stroke="#000000" stroke-miterlimit="10" points="65.93,182.815 79.54,196.425 81.741,194.225 "/>
<line fill="none" stroke="#000000" stroke-miterlimit="10" x1="93.149" y1="182.815" x2="86.142" y2="189.824"/>
<g>
	<path d="M61.208,201.814h1.07l0.62,3.451c0.117,0.701,0.233,1.411,0.351,2.121h0.036c0.144-0.71,0.297-1.42,0.449-2.121
		l0.854-3.451h0.926l0.854,3.451c0.152,0.692,0.296,1.402,0.449,2.121h0.045c0.108-0.719,0.225-1.429,0.333-2.121l0.629-3.451h0.998
		l-1.303,6.624h-1.286l-0.89-3.676c-0.117-0.521-0.216-1.016-0.306-1.519h-0.036c-0.099,0.503-0.207,0.998-0.314,1.519l-0.872,3.676
		h-1.258L61.208,201.814z"/>
	<path d="M70.99,205.931l-1.986-4.116h1.114l0.764,1.761c0.207,0.495,0.396,0.953,0.62,1.456h0.036
		c0.216-0.503,0.432-0.961,0.629-1.456l0.773-1.761h1.087l-1.995,4.116v2.507H70.99V205.931z"/>
	<path d="M76.889,201.814h1.043v2.705h2.831v-2.705h1.043v6.624h-1.043v-3.011h-2.831v3.011h-1.043V201.814z"/>
	<path d="M83.176,205.104c0-2.13,1.177-3.406,2.876-3.406s2.885,1.276,2.885,3.406c0,2.13-1.187,3.451-2.885,3.451
		S83.176,207.234,83.176,205.104z M87.867,205.104c0-1.555-0.719-2.499-1.815-2.499c-1.096,0-1.807,0.944-1.807,2.499
		c0,1.546,0.71,2.543,1.807,2.543C87.148,207.647,87.867,206.649,87.867,205.104z"/>
	<path d="M91.403,202.695h-1.941v-0.88h4.934v0.88h-1.951v5.743h-1.042V202.695z"/>
	<path d="M96.882,202.695h-1.941v-0.88h4.934v0.88h-1.951v5.743h-1.042V202.695z"/>
	<path d="M101.012,201.814h1.043v5.743h2.804v0.881h-3.847V201.814z"/>
	<path d="M106.023,201.814h3.91v0.88h-2.867v1.843h2.426v0.881h-2.426v2.139h2.966v0.881h-4.009V201.814z"/>
</g>
</svg>
